<svg width="643" height="158" viewBox="0 0 643 158" fill="none" xmlns="http://www.w3.org/2000/svg">
<path d="M54.488 60.16C54.2746 59.3494 53.9973 58.432 53.656 57.408C53.3146 56.384 52.9093 55.296 52.44 54.144C50.648 54.5707 48.536 55.04 46.104 55.552C43.672 56.0214 41.1546 56.4907 38.552 56.96C35.9493 57.4294 33.432 57.856 31 58.24C28.568 58.624 26.456 58.944 24.664 59.2L22.68 52.352C24.1306 52.224 26.1786 51.9894 28.824 51.648C31.4693 51.264 34.2426 50.8587 37.144 50.432V36.928H23.96V14.848H37.144V2.68802H44.504V14.848H57.624V36.928H44.504V49.28C45.4853 49.1094 46.424 48.96 47.32 48.832C48.2586 48.6614 49.1333 48.4907 49.944 48.32C49.3893 47.0827 48.8133 45.9307 48.216 44.864C47.6613 43.7974 47.128 42.8587 46.616 42.048L52.952 39.168C53.8906 40.5334 54.8933 42.2827 55.96 44.416C57.0693 46.5494 58.0933 48.768 59.032 51.072C60.0133 53.376 60.7813 55.5094 61.336 57.472C60.2693 57.856 59.0746 58.304 57.752 58.816C56.4293 59.328 55.3413 59.776 54.488 60.16ZM6.61596 60.224C6.53063 59.2427 6.29596 57.984 5.91196 56.448C5.52796 54.9547 5.12263 53.7387 4.69596 52.8H9.62396C11.5013 52.8 12.9093 52.032 13.848 50.496C14.7866 48.96 15.256 46.1867 15.256 42.176C15.256 40.9387 15.2346 39.7227 15.192 38.528C15.1493 37.3334 15.0853 36.2027 15 35.136C13.6773 37.2694 12.2693 39.36 10.776 41.408C9.32529 43.4134 7.93863 45.0987 6.61596 46.464C5.89063 45.7814 4.97329 45.056 3.86396 44.288C2.79729 43.4774 1.77329 42.8587 0.791959 42.432C1.81596 41.536 2.90396 40.384 4.05596 38.976C5.25063 37.5254 6.42396 35.968 7.57596 34.304C8.72796 32.64 9.77329 30.9974 10.712 29.376C11.6933 27.712 12.4613 26.24 13.016 24.96C12.8453 24.3627 12.632 23.7867 12.376 23.232C12.1626 22.6774 11.9493 22.1227 11.736 21.568C10.712 22.464 9.68796 23.3174 8.66396 24.128C7.63996 24.896 6.63729 25.6 5.65596 26.24C5.35729 25.8134 4.88796 25.2587 4.24796 24.576C3.60796 23.8934 2.92529 23.2107 2.19996 22.528C1.51729 21.8454 0.919959 21.3334 0.407959 20.992C1.64529 20.2667 2.92529 19.4134 4.24796 18.432C5.61329 17.408 6.95729 16.32 8.27996 15.168C7.34129 13.76 6.31729 12.3947 5.20796 11.072C4.09863 9.74936 2.88263 8.42669 1.55996 7.10402L7.06396 3.20002C9.32529 5.50402 11.352 7.91469 13.144 10.432C14.296 9.19469 15.3413 7.95736 16.28 6.72002C17.2613 5.48269 18.072 4.33069 18.712 3.26402L24.856 6.91203C23.7893 8.49069 22.5733 10.112 21.208 11.776C19.8853 13.3974 18.456 14.9974 16.92 16.576C18.7973 20.2027 20.184 24.1067 21.08 28.288C21.976 32.4694 22.424 37.0987 22.424 42.176C22.424 46.6987 21.9333 50.2827 20.952 52.928C19.9706 55.5307 18.5626 57.3867 16.728 58.496C14.936 59.648 12.824 60.224 10.392 60.224H6.61596ZM31.192 30.4H37.144V21.44H31.192V30.4ZM44.504 30.4H50.456V21.44H44.504V30.4Z" fill="white"/>
<path d="M74.124 58.624V10.688H86.86C87.244 9.70669 87.628 8.61869 88.012 7.42402C88.4386 6.22936 88.8013 5.12002 89.1 4.09602C89.4413 3.07202 89.6333 2.36802 89.676 1.98402L99.02 2.88002C98.764 3.69069 98.2733 4.86402 97.548 6.40002C96.8653 7.89336 96.1826 9.32269 95.5 10.688H116.94V58.624H74.124ZM82.124 51.84H108.94V44.8H82.124V51.84ZM82.124 38.144H108.94V31.104H82.124V38.144ZM82.124 24.512H108.94V17.472H82.124V24.512Z" fill="white"/>
<path d="M154.352 57.536C154.096 57.056 153.76 56.496 153.344 55.856C152.928 55.184 152.48 54.528 152 53.888C151.552 53.248 151.088 52.72 150.608 52.304C154.48 51.632 157.616 50.576 160.016 49.136C162.448 47.696 164.224 46 165.344 44.048C166.464 42.096 167.024 40.016 167.024 37.808C167.024 35.504 166.544 33.408 165.584 31.52C164.656 29.6 163.296 28.016 161.504 26.768C159.744 25.52 157.584 24.72 155.024 24.368C154.64 28.432 154.016 32.256 153.152 35.84C152.288 39.392 151.248 42.528 150.032 45.248C148.816 47.968 147.488 50.112 146.048 51.68C144.608 53.216 143.104 53.984 141.536 53.984C140.256 53.984 138.976 53.616 137.696 52.88C136.448 52.144 135.312 51.104 134.288 49.76C133.296 48.384 132.496 46.768 131.888 44.912C131.28 43.056 130.976 41.024 130.976 38.816C130.976 36.256 131.456 33.792 132.416 31.424C133.376 29.056 134.784 26.944 136.64 25.088C138.496 23.232 140.768 21.776 143.456 20.72C146.144 19.632 149.216 19.088 152.672 19.088C155.936 19.088 158.832 19.616 161.36 20.672C163.888 21.696 166.016 23.088 167.744 24.848C169.472 26.608 170.784 28.608 171.68 30.848C172.576 33.088 173.024 35.408 173.024 37.808C173.024 42.704 171.44 46.848 168.272 50.24C165.104 53.6 160.464 56.032 154.352 57.536ZM141.2 47.456C141.744 47.456 142.384 46.896 143.12 45.776C143.888 44.656 144.672 43.072 145.472 41.024C146.272 38.944 147.008 36.496 147.68 33.68C148.384 30.864 148.928 27.76 149.312 24.368C146.592 24.752 144.272 25.664 142.352 27.104C140.464 28.512 139.024 30.24 138.032 32.288C137.072 34.304 136.592 36.432 136.592 38.672C136.592 40.4 136.816 41.936 137.264 43.28C137.712 44.592 138.288 45.616 138.992 46.352C139.696 47.088 140.432 47.456 141.2 47.456Z" fill="white"/>
<path d="M196.596 59.264C196.127 58.7094 195.444 58.0907 194.548 57.408C193.652 56.7254 192.735 56.0854 191.796 55.488C190.9 54.8907 190.132 54.4427 189.492 54.144C192.436 52.352 195.017 50.112 197.236 47.424C199.455 44.736 201.225 41.7707 202.548 38.528C203.913 35.2854 204.745 32 205.044 28.672C201.929 28.7147 198.921 28.7787 196.02 28.864C193.161 28.9494 190.58 29.0347 188.276 29.12C186.015 29.2054 184.223 29.2907 182.9 29.376C182.985 28.2667 183.007 26.9654 182.964 25.472C182.921 23.9787 182.857 22.6987 182.772 21.632C184.223 21.6747 186.228 21.7174 188.788 21.76C191.391 21.8027 194.313 21.824 197.556 21.824C200.799 21.7814 204.169 21.7387 207.668 21.696C211.167 21.6534 214.58 21.5894 217.908 21.504C221.279 21.4187 224.372 21.3334 227.188 21.248C230.004 21.12 232.308 20.992 234.1 20.864C234.015 21.8027 233.972 23.04 233.972 24.576C233.972 26.112 233.993 27.4347 234.036 28.544C232.756 28.5014 231.049 28.48 228.916 28.48C226.783 28.4374 224.372 28.4374 221.684 28.48C219.039 28.48 216.244 28.5014 213.3 28.544C212.959 34.6027 211.38 40.2774 208.564 45.568C205.791 50.8587 201.801 55.424 196.596 59.264ZM190.708 14.272C190.751 13.6747 190.751 12.928 190.708 12.032C190.708 11.0934 190.708 10.176 190.708 9.28003C190.665 8.76802 190.644 8.27736 190.644 7.80803C190.644 7.33869 190.644 6.91202 190.644 6.52802C192.308 6.61336 194.335 6.67736 196.724 6.72002C199.113 6.72002 201.673 6.72002 204.404 6.72002C207.177 6.67736 209.908 6.63469 212.596 6.59203C215.327 6.50669 217.844 6.42136 220.148 6.33603C222.452 6.25069 224.329 6.14402 225.78 6.01603C225.78 6.74136 225.759 7.59469 225.716 8.57602C225.716 9.55736 225.716 10.5387 225.716 11.52C225.759 12.4587 225.801 13.248 225.844 13.888C224.265 13.8027 222.26 13.76 219.828 13.76C217.439 13.7174 214.836 13.7174 212.02 13.76C209.247 13.76 206.473 13.7814 203.7 13.824C200.969 13.8667 198.452 13.9307 196.148 14.016C193.887 14.1014 192.073 14.1867 190.708 14.272ZM239.476 12.928C239.391 12.8427 239.135 12.5014 238.708 11.904C238.324 11.3067 237.833 10.624 237.236 9.85603C236.681 9.04536 236.105 8.23469 235.508 7.42402C234.953 6.61336 234.463 5.93069 234.036 5.37603C233.652 4.77869 233.417 4.43736 233.332 4.35202L236.788 1.98402C236.873 2.11202 237.215 2.60269 237.812 3.45602C238.409 4.30936 239.092 5.26936 239.86 6.33603C240.628 7.40269 241.311 8.34136 241.908 9.15202C242.505 9.96269 242.868 10.432 242.996 10.56L239.476 12.928ZM233.332 16.96C233.289 16.8747 233.055 16.5547 232.628 16C232.201 15.4027 231.689 14.6987 231.092 13.888C230.537 13.0774 229.961 12.288 229.364 11.52C228.809 10.7094 228.319 10.0267 227.892 9.47202C227.508 8.87469 227.273 8.53336 227.188 8.44802L230.644 6.08002C230.772 6.20803 231.135 6.69869 231.732 7.55202C232.329 8.36269 232.991 9.30136 233.716 10.368C234.484 11.4347 235.167 12.3734 235.764 13.184C236.361 13.9947 236.724 14.464 236.852 14.592L233.332 16.96Z" fill="white"/>
<path d="M269.864 59.456C269.437 58.8587 268.84 58.1547 268.072 57.344C267.347 56.576 266.579 55.8294 265.768 55.104C265 54.336 264.317 53.76 263.72 53.376C266.536 52.096 268.883 50.7094 270.76 49.216C272.68 47.7227 274.216 45.9734 275.368 43.968C276.52 41.92 277.373 39.5094 277.928 36.736C278.525 33.92 278.888 30.5707 279.016 26.688C277.011 26.688 274.984 26.7094 272.936 26.752C270.931 26.752 268.925 26.7734 266.92 26.816C266.963 29.2907 266.984 31.6587 266.984 33.92C267.027 36.1387 267.048 38.0587 267.048 39.68C267.091 41.2587 267.112 42.368 267.112 43.008C266.003 43.008 264.637 43.0294 263.016 43.072C261.437 43.1147 260.093 43.1787 258.984 43.264C259.027 42.3254 259.048 41.024 259.048 39.36C259.048 37.696 259.048 35.7974 259.048 33.664C259.048 31.5307 259.027 29.312 258.984 27.008C255.997 27.0934 253.352 27.1787 251.048 27.264C248.744 27.3494 246.995 27.4347 245.8 27.52C245.8 26.3254 245.779 24.896 245.736 23.232C245.736 21.568 245.693 20.2027 245.608 19.136C247.101 19.2214 248.979 19.3067 251.24 19.392C253.544 19.4347 256.083 19.456 258.856 19.456C258.813 16.3414 258.749 13.5467 258.664 11.072C258.579 8.55469 258.493 6.82669 258.408 5.88802C259.091 5.93069 259.987 5.97336 261.096 6.01603C262.248 6.05869 263.357 6.10136 264.424 6.14402C265.491 6.14402 266.301 6.14402 266.856 6.14402C266.813 6.74136 266.792 7.80802 266.792 9.34402C266.792 10.8374 266.792 12.608 266.792 14.656C266.792 15.424 266.792 16.2134 266.792 17.024C266.792 17.8347 266.792 18.6667 266.792 19.52C268.797 19.4774 270.824 19.456 272.872 19.456C274.963 19.456 277.032 19.4347 279.08 19.392C279.08 17.1307 279.037 14.976 278.952 12.928C278.867 10.88 278.781 9.10936 278.696 7.61602C278.611 6.08002 278.547 5.03469 278.504 4.48002C279.059 4.48002 279.869 4.50136 280.936 4.54403C282.045 4.58669 283.155 4.62936 284.264 4.67202C285.373 4.67202 286.227 4.67202 286.824 4.67202C286.824 5.09869 286.824 5.86669 286.824 6.97602C286.824 8.08536 286.824 9.36536 286.824 10.816C286.867 12.2667 286.888 13.7387 286.888 15.232C286.888 16.6827 286.888 18.0054 286.888 19.2C289.619 19.1147 292.136 19.0294 294.44 18.944C296.787 18.816 298.792 18.688 300.456 18.56C300.456 19.1574 300.435 19.9894 300.392 21.056C300.392 22.08 300.392 23.1254 300.392 24.192C300.435 25.216 300.477 26.0267 300.52 26.624C299.112 26.5814 297.213 26.56 294.824 26.56C292.435 26.56 289.768 26.56 286.824 26.56C286.696 31.2107 286.291 35.2 285.608 38.528C284.968 41.856 283.987 44.7574 282.664 47.232C281.341 49.7067 279.635 51.904 277.544 53.824C275.453 55.744 272.893 57.6214 269.864 59.456ZM296.808 16C296.723 15.9147 296.445 15.616 295.976 15.104C295.507 14.5494 294.931 13.9094 294.248 13.184C293.608 12.416 292.947 11.6694 292.264 10.944C291.624 10.2187 291.048 9.60003 290.536 9.08802C290.067 8.57602 289.789 8.27736 289.704 8.19202L292.904 5.37603C292.989 5.50402 293.373 5.95202 294.056 6.72002C294.781 7.48802 295.571 8.36269 296.424 9.34402C297.32 10.2827 298.109 11.136 298.792 11.904C299.475 12.6294 299.88 13.056 300.008 13.184L296.808 16ZM302.44 11.072C302.312 10.944 301.907 10.496 301.224 9.72802C300.541 8.96002 299.752 8.10669 298.856 7.16803C298.003 6.18669 297.213 5.33336 296.488 4.60802C295.805 3.84002 295.421 3.39202 295.336 3.26402L298.472 0.512024C298.6 0.640025 299.005 1.08803 299.688 1.85603C300.371 2.62402 301.139 3.49869 301.992 4.48002C302.888 5.41869 303.677 6.27202 304.36 7.04002C305.043 7.76536 305.448 8.19202 305.576 8.32002L302.44 11.072Z" fill="white"/>
<path d="M337.372 58.752C337.415 57.9414 337.436 56.6827 337.436 54.976C337.479 53.2694 337.5 51.2854 337.5 49.024C337.543 46.72 337.564 44.288 337.564 41.728C337.607 39.168 337.628 36.6294 337.628 34.112C337.628 31.5947 337.628 29.248 337.628 27.072C334.428 29.4614 331.249 31.68 328.092 33.728C324.935 35.776 321.927 37.5254 319.068 38.976C318.684 38.5067 318.065 37.888 317.212 37.12C316.359 36.3094 315.484 35.52 314.588 34.752C313.735 33.984 313.073 33.408 312.604 33.024C316.06 31.488 319.623 29.568 323.292 27.264C327.004 24.96 330.609 22.4854 334.108 19.84C337.649 17.152 340.913 14.464 343.9 11.776C346.929 9.08803 349.489 6.57069 351.58 4.22403C352.092 4.65069 352.775 5.18402 353.628 5.82402C354.481 6.46402 355.356 7.08269 356.252 7.68002C357.191 8.27736 357.937 8.74669 358.492 9.08802C354.737 12.9707 350.385 16.96 345.436 21.056C345.436 23.2747 345.457 25.856 345.5 28.8C345.543 31.744 345.585 34.7947 345.628 37.952C345.671 41.0667 345.692 44.0534 345.692 46.912C345.735 49.7707 345.777 52.2454 345.82 54.336C345.863 56.4267 345.884 57.8987 345.884 58.752H337.372Z" fill="white"/>
<path d="M383.568 54.976C383.269 54.4214 382.821 53.632 382.224 52.608C381.627 51.5414 381.008 50.496 380.368 49.472C379.728 48.448 379.195 47.7227 378.768 47.296C382.992 46.3574 387.28 44.992 391.632 43.2C396.027 41.3654 400.315 39.2107 404.496 36.736C408.72 34.2187 412.709 31.4454 416.464 28.416C420.261 25.3867 423.696 22.1867 426.768 18.816C426.853 19.328 427.003 20.0107 427.216 20.864C427.472 21.6747 427.728 22.528 427.984 23.424C428.24 24.32 428.475 25.1307 428.688 25.856C428.944 26.5387 429.136 27.008 429.264 27.264C425.552 31.1894 421.221 34.944 416.272 38.528C411.365 42.112 406.117 45.3334 400.528 48.192C394.939 51.008 389.285 53.2694 383.568 54.976ZM392.784 26.688C392.016 25.8774 391.035 24.9387 389.84 23.872C388.645 22.7627 387.344 21.6534 385.936 20.544C384.528 19.392 383.141 18.3254 381.776 17.344C380.453 16.32 379.259 15.488 378.192 14.848C378.747 14.336 379.429 13.6747 380.24 12.864C381.051 12.0107 381.819 11.1787 382.544 10.368C383.312 9.55736 383.845 8.98136 384.144 8.64003C385.168 9.28003 386.363 10.112 387.728 11.136C389.093 12.16 390.48 13.248 391.888 14.4C393.296 15.552 394.597 16.6827 395.792 17.792C397.029 18.8587 397.989 19.776 398.672 20.544C398.203 20.9707 397.584 21.568 396.816 22.336C396.091 23.104 395.344 23.8934 394.576 24.704C393.851 25.472 393.253 26.1334 392.784 26.688Z" fill="white"/>
<path d="M450.18 59.712C449.369 58.3467 448.281 56.8747 446.916 55.296C445.593 53.7174 444.185 52.224 442.692 50.816C441.241 49.3654 439.855 48.1707 438.532 47.232L443.396 42.816C444.377 43.456 445.444 44.288 446.596 45.312C447.748 46.2934 448.921 47.36 450.116 48.512C451.311 49.6214 452.399 50.7094 453.38 51.776C454.404 52.8427 455.236 53.7814 455.876 54.592L450.18 59.712Z" fill="white"/>
<path d="M11.416 154.176V121.984H1.75196V114.816H11.416V101.248H19.224V114.816H27.224V99.648H34.648V114.816H42.904V101.248H50.328V114.816H60.312V121.984H50.328V140.48H27.224V121.984H19.224V146.944H56.984V154.176H11.416ZM34.648 133.504H42.904V121.984H34.648V133.504Z" fill="white"/>
<path d="M74.508 157.312C74.2093 156.8 73.7826 156.16 73.228 155.392C72.716 154.667 72.14 153.92 71.5 153.152C70.9026 152.427 70.3266 151.829 69.772 151.36C74.508 149.995 78.1346 147.925 80.652 145.152C83.1693 142.336 84.4493 138.645 84.492 134.08C82.1453 135.787 79.5853 137.365 76.812 138.816C74.0813 140.224 71.2653 141.461 68.364 142.528C68.0226 141.675 67.4893 140.587 66.764 139.264C66.0386 137.941 65.3133 136.896 64.588 136.128C68.5986 135.147 72.4173 133.611 76.044 131.52C79.6706 129.387 82.7 127.104 85.132 124.672H72.652V100.032H118.348V124.672H105.228C107.148 126.464 109.324 128.085 111.756 129.536C114.231 130.987 116.748 132.203 119.308 133.184C121.868 134.165 124.236 134.869 126.412 135.296C125.644 136.149 124.855 137.28 124.044 138.688C123.233 140.053 122.615 141.269 122.188 142.336C119.927 141.525 117.58 140.544 115.148 139.392C112.716 138.197 110.369 136.875 108.108 135.424V156.416H100.492V132.288H103.628C102.177 131.136 100.833 129.92 99.596 128.64C98.3586 127.317 97.2706 125.995 96.332 124.672H94.156C92.236 127.36 89.7613 129.92 86.732 132.352L91.724 132.8C91.8093 138.987 90.3373 144.085 87.308 148.096C84.2786 152.107 80.012 155.179 74.508 157.312ZM80.46 118.912H91.66V114.752H80.46V118.912ZM99.34 118.912H110.54V114.752H99.34V118.912ZM80.46 109.952H91.66V105.792H80.46V109.952ZM99.34 109.952H110.54V105.792H99.34V109.952Z" fill="white"/>
<path d="M135.296 153.92C134.816 151.392 134.464 148.272 134.24 144.56C134.016 140.848 133.904 136.912 133.904 132.752C133.904 130.608 133.984 128.4 134.144 126.128C134.336 123.824 134.56 121.648 134.816 119.6C135.072 117.52 135.328 115.776 135.584 114.368C136.32 114.56 137.296 114.736 138.512 114.896C139.728 115.056 140.768 115.168 141.632 115.232C141.216 116.896 140.832 118.784 140.48 120.896C140.16 122.976 139.888 125.072 139.664 127.184C139.472 129.296 139.376 131.216 139.376 132.944C139.376 135.504 139.44 138.048 139.568 140.576C139.728 143.072 139.936 145.36 140.192 147.44C140.448 149.52 140.72 151.232 141.008 152.576C140.208 152.672 139.232 152.848 138.08 153.104C136.928 153.392 136 153.664 135.296 153.92ZM156.464 151.328C152.336 151.296 149.424 150.32 147.728 148.4C146.064 146.48 145.904 143.536 147.248 139.568L152.24 140.768C151.696 142.208 151.76 143.392 152.432 144.32C153.136 145.216 154.832 145.68 157.52 145.712C159.952 145.744 162.416 145.632 164.912 145.376C167.408 145.088 169.632 144.72 171.584 144.272C171.52 144.72 171.44 145.328 171.344 146.096C171.28 146.864 171.232 147.632 171.2 148.4C171.168 149.168 171.168 149.808 171.2 150.32C169.792 150.544 168.208 150.736 166.448 150.896C164.688 151.056 162.928 151.168 161.168 151.232C159.44 151.296 157.872 151.328 156.464 151.328ZM148.16 124.064C148.192 123.424 148.192 122.736 148.16 122C148.128 121.232 148.08 120.496 148.016 119.792C147.984 119.088 147.936 118.544 147.872 118.16C148.896 118.32 150.128 118.432 151.568 118.496C153.008 118.56 154.544 118.592 156.176 118.592C157.808 118.592 159.44 118.544 161.072 118.448C162.736 118.352 164.272 118.224 165.68 118.064C167.088 117.872 168.272 117.648 169.232 117.392C169.2 117.872 169.152 118.48 169.088 119.216C169.056 119.92 169.024 120.64 168.992 121.376C168.992 122.08 168.992 122.688 168.992 123.2C167.648 123.424 166.048 123.616 164.192 123.776C162.336 123.936 160.416 124.064 158.432 124.16C156.448 124.224 154.544 124.256 152.72 124.256C150.928 124.224 149.408 124.16 148.16 124.064Z" fill="white"/>
<path d="M193.876 152V97.856L182.164 105.536L176.692 96.8L196.276 84.704H204.148V152H193.876Z" fill="white"/>
<path d="M238.425 150.208C237.999 148.843 237.423 147.413 236.697 145.92C235.972 144.427 235.204 143.211 234.393 142.272C236.527 142.101 238.809 141.867 241.241 141.568C243.716 141.227 246.169 140.843 248.601 140.416C251.076 139.989 253.38 139.52 255.513 139.008C260.292 137.899 263.705 136.149 265.753 133.76C267.844 131.328 268.548 128.491 267.865 125.248C266.543 119.147 262.084 116.416 254.489 117.056C252.185 117.269 249.583 117.675 246.681 118.272C243.78 118.827 240.836 119.488 237.849 120.256C234.905 120.981 232.132 121.728 229.529 122.496C226.969 123.221 224.836 123.84 223.129 124.352C222.959 123.627 222.681 122.752 222.297 121.728C221.913 120.661 221.487 119.616 221.017 118.592C220.548 117.525 220.079 116.629 219.609 115.904C220.548 115.733 221.999 115.435 223.961 115.008C225.924 114.581 228.249 114.112 230.937 113.6C233.668 113.045 236.633 112.491 239.833 111.936C243.076 111.381 246.383 110.891 249.753 110.464C257.561 109.44 263.535 110.059 267.673 112.32C271.855 114.539 274.479 118.357 275.545 123.776C276.228 127.061 276.121 130.176 275.225 133.12C274.372 136.021 272.559 138.581 269.785 140.8C267.055 143.019 263.193 144.789 258.201 146.112C256.111 146.624 253.892 147.157 251.545 147.712C249.241 148.224 246.959 148.693 244.697 149.12C242.436 149.547 240.345 149.909 238.425 150.208Z" fill="white"/>
<path d="M291.245 154.256C290.349 153.936 289.309 153.616 288.125 153.296C286.973 153.008 285.981 152.8 285.149 152.672C286.077 150.432 286.973 147.952 287.837 145.232C288.701 142.512 289.517 139.68 290.285 136.736C291.053 133.792 291.757 130.88 292.397 128C289.805 128.192 287.389 128.288 285.149 128.288C285.181 127.84 285.181 127.248 285.149 126.512C285.149 125.776 285.117 125.04 285.053 124.304C284.989 123.536 284.925 122.944 284.861 122.528C286.045 122.592 287.389 122.608 288.893 122.576C290.429 122.544 291.981 122.464 293.549 122.336C293.901 120.48 294.157 118.752 294.317 117.152C294.477 115.552 294.557 114.192 294.557 113.072C295.037 113.168 295.645 113.28 296.381 113.408C297.117 113.536 297.869 113.648 298.637 113.744C299.437 113.808 300.109 113.856 300.653 113.888C300.525 115.104 300.333 116.4 300.077 117.776C299.821 119.12 299.565 120.48 299.309 121.856C300.237 121.76 301.101 121.664 301.901 121.568C302.733 121.472 303.469 121.36 304.109 121.232C304.077 122 304.093 122.96 304.157 124.112C304.253 125.232 304.333 126.112 304.397 126.752C303.565 126.88 302.589 127.008 301.469 127.136C300.381 127.264 299.229 127.392 298.013 127.52C297.501 129.696 296.925 132.064 296.285 134.624C295.645 137.152 295.005 139.68 294.365 142.208C293.725 144.736 293.133 147.056 292.589 149.168C292.045 151.248 291.597 152.944 291.245 154.256ZM309.869 152.768C307.149 152.544 304.813 152.064 302.861 151.328C300.909 150.56 299.277 149.584 297.965 148.4C298.413 147.76 298.893 146.96 299.405 146C299.917 145.008 300.285 144.128 300.509 143.36C301.533 144.352 302.909 145.216 304.637 145.952C306.397 146.656 308.253 147.072 310.205 147.2C311.613 147.296 313.165 147.328 314.861 147.296C316.589 147.264 318.253 147.2 319.853 147.104C321.485 147.008 322.877 146.896 324.029 146.768C323.965 147.28 323.885 147.92 323.789 148.688C323.725 149.424 323.677 150.144 323.645 150.848C323.613 151.52 323.597 152.064 323.597 152.48C322.381 152.64 320.973 152.752 319.373 152.816C317.805 152.912 316.189 152.96 314.525 152.96C312.893 152.96 311.341 152.896 309.869 152.768ZM322.445 131.792C320.781 131.312 318.909 130.88 316.829 130.496C314.781 130.112 312.733 129.792 310.685 129.536C308.669 129.28 306.877 129.12 305.309 129.056C305.565 128.384 305.837 127.52 306.125 126.464C306.445 125.408 306.669 124.528 306.797 123.824C307.981 123.824 309.325 123.904 310.829 124.064C312.365 124.224 313.933 124.432 315.533 124.688C317.165 124.944 318.717 125.232 320.189 125.552C321.661 125.84 322.941 126.128 324.029 126.416C323.677 127.152 323.341 128.032 323.021 129.056C322.701 130.08 322.509 130.992 322.445 131.792ZM320.381 122.768C320.317 122.704 320.093 122.496 319.709 122.144C319.325 121.76 318.861 121.312 318.317 120.8C317.773 120.288 317.229 119.792 316.685 119.312C316.141 118.8 315.677 118.368 315.293 118.016C314.909 117.632 314.685 117.408 314.621 117.344L316.781 115.088C316.877 115.184 317.213 115.504 317.789 116.048C318.365 116.56 319.005 117.152 319.709 117.824C320.413 118.464 321.037 119.056 321.581 119.6C322.157 120.112 322.493 120.416 322.589 120.512L320.381 122.768ZM324.269 118.736C324.173 118.64 323.837 118.336 323.261 117.824C322.717 117.28 322.093 116.688 321.389 116.048C320.685 115.376 320.045 114.784 319.469 114.272C318.925 113.728 318.605 113.424 318.509 113.36L320.669 111.104C320.765 111.2 321.101 111.52 321.677 112.064C322.253 112.576 322.893 113.168 323.597 113.84C324.301 114.48 324.925 115.072 325.469 115.616C326.045 116.128 326.381 116.416 326.477 116.48L324.269 118.736Z" fill="white"/>
<path d="M354.865 155.84C354.545 155.456 354.097 155.024 353.521 154.544C352.945 154.096 352.353 153.664 351.745 153.248C351.137 152.832 350.577 152.512 350.065 152.288C351.537 151.2 352.849 150.064 354.001 148.88C355.153 147.664 356.129 146.272 356.929 144.704C357.729 143.104 358.337 141.184 358.753 138.944C359.169 136.672 359.377 133.952 359.377 130.784V129.536C356.849 129.632 354.449 129.744 352.177 129.872C349.905 129.968 348.113 130.08 346.801 130.208C346.801 129.696 346.753 129.104 346.657 128.432C346.593 127.728 346.513 127.04 346.417 126.368C346.353 125.696 346.273 125.152 346.177 124.736C347.009 124.736 348.097 124.72 349.441 124.688C350.817 124.656 352.337 124.624 354.001 124.592C355.697 124.528 357.425 124.48 359.185 124.448C359.057 122.336 358.881 120.304 358.657 118.352C358.465 116.368 358.241 114.736 357.985 113.456C358.497 113.488 359.137 113.504 359.905 113.504C360.673 113.504 361.441 113.488 362.209 113.456C362.977 113.392 363.601 113.344 364.081 113.312C364.177 114.4 364.289 115.952 364.417 117.968C364.545 119.984 364.657 122.064 364.753 124.208C366.833 124.112 368.705 124.016 370.369 123.92C372.033 123.824 373.265 123.744 374.065 123.68C374.065 124.032 374.065 124.528 374.065 125.168C374.065 125.776 374.081 126.416 374.113 127.088C374.145 127.728 374.177 128.256 374.209 128.672C374.209 128.832 374.209 128.944 374.209 129.008C373.121 129.04 371.761 129.088 370.129 129.152C368.529 129.184 366.785 129.232 364.897 129.296V130.784C364.897 135.232 364.513 139.024 363.745 142.16C362.977 145.264 361.841 147.92 360.337 150.128C358.865 152.304 357.041 154.208 354.865 155.84ZM336.625 154.256C335.601 151.408 334.849 148.272 334.369 144.848C333.921 141.392 333.697 137.536 333.697 133.28C333.697 131.744 333.745 130.08 333.841 128.288C333.969 126.464 334.129 124.64 334.321 122.816C334.545 120.96 334.785 119.216 335.041 117.584C335.297 115.952 335.553 114.56 335.809 113.408C336.609 113.664 337.601 113.92 338.785 114.176C339.969 114.432 340.913 114.592 341.617 114.656C341.137 116.416 340.705 118.4 340.321 120.608C339.969 122.816 339.681 125.04 339.457 127.28C339.233 129.488 339.121 131.52 339.121 133.376C339.121 137.344 339.377 140.96 339.889 144.224C340.401 147.488 341.041 150.256 341.809 152.528C341.361 152.624 340.785 152.768 340.081 152.96C339.409 153.184 338.737 153.408 338.065 153.632C337.425 153.888 336.945 154.096 336.625 154.256Z" fill="white"/>
<path d="M404.133 153.536C403.877 153.056 403.541 152.496 403.125 151.856C402.709 151.184 402.261 150.528 401.781 149.888C401.333 149.248 400.869 148.72 400.389 148.304C404.261 147.632 407.397 146.576 409.797 145.136C412.229 143.696 414.005 142 415.125 140.048C416.245 138.096 416.805 136.016 416.805 133.808C416.805 131.504 416.325 129.408 415.365 127.52C414.437 125.6 413.077 124.016 411.285 122.768C409.525 121.52 407.365 120.72 404.805 120.368C404.421 124.432 403.797 128.256 402.933 131.84C402.069 135.392 401.029 138.528 399.813 141.248C398.597 143.968 397.269 146.112 395.829 147.68C394.389 149.216 392.885 149.984 391.317 149.984C390.037 149.984 388.757 149.616 387.477 148.88C386.229 148.144 385.093 147.104 384.069 145.76C383.077 144.384 382.277 142.768 381.669 140.912C381.061 139.056 380.757 137.024 380.757 134.816C380.757 132.256 381.237 129.792 382.197 127.424C383.157 125.056 384.565 122.944 386.421 121.088C388.277 119.232 390.549 117.776 393.237 116.72C395.925 115.632 398.997 115.088 402.453 115.088C405.717 115.088 408.613 115.616 411.141 116.672C413.669 117.696 415.797 119.088 417.525 120.848C419.253 122.608 420.565 124.608 421.461 126.848C422.357 129.088 422.805 131.408 422.805 133.808C422.805 138.704 421.221 142.848 418.053 146.24C414.885 149.6 410.245 152.032 404.133 153.536ZM390.981 143.456C391.525 143.456 392.165 142.896 392.901 141.776C393.669 140.656 394.453 139.072 395.253 137.024C396.053 134.944 396.789 132.496 397.461 129.68C398.165 126.864 398.709 123.76 399.093 120.368C396.373 120.752 394.053 121.664 392.133 123.104C390.245 124.512 388.805 126.24 387.813 128.288C386.853 130.304 386.373 132.432 386.373 134.672C386.373 136.4 386.597 137.936 387.045 139.28C387.493 140.592 388.069 141.616 388.773 142.352C389.477 143.088 390.213 143.456 390.981 143.456Z" fill="white"/>
<path d="M454.185 156.16C454.228 155.221 454.271 153.877 454.313 152.128C454.356 150.421 454.399 148.565 454.441 146.56C454.484 144.512 454.505 142.528 454.505 140.608C454.548 138.688 454.569 137.067 454.569 135.744C448.596 139.968 442.217 143.595 435.433 146.624C435.177 146.155 434.708 145.493 434.025 144.64C433.343 143.787 432.639 142.933 431.913 142.08C431.188 141.227 430.591 140.587 430.121 140.16C432.98 139.264 435.924 138.091 438.953 136.64C441.983 135.189 444.905 133.589 447.721 131.84C450.537 130.048 453.055 128.213 455.273 126.336C457.535 124.459 459.305 122.645 460.585 120.896C459.433 120.896 458.004 120.917 456.297 120.96C454.633 120.96 452.82 120.981 450.857 121.024C448.937 121.067 447.039 121.131 445.161 121.216C443.327 121.259 441.663 121.301 440.169 121.344C438.719 121.387 437.609 121.451 436.841 121.536C436.884 121.067 436.884 120.341 436.841 119.36C436.841 118.336 436.82 117.312 436.777 116.288C436.735 115.264 436.692 114.475 436.649 113.92C437.631 114.005 438.996 114.069 440.745 114.112C442.495 114.155 444.457 114.176 446.633 114.176C448.809 114.176 451.049 114.176 453.353 114.176C455.657 114.133 457.876 114.091 460.009 114.048C462.143 114.005 464.041 113.941 465.705 113.856C467.369 113.771 468.628 113.685 469.481 113.6C469.737 113.813 470.079 114.176 470.505 114.688C470.975 115.157 471.423 115.627 471.849 116.096C472.319 116.523 472.66 116.843 472.873 117.056C472.447 117.568 471.956 118.208 471.401 118.976C470.847 119.744 470.271 120.512 469.673 121.28C468.649 122.688 467.519 124.075 466.281 125.44C465.044 126.763 463.721 128.085 462.313 129.408C462.313 130.773 462.313 132.416 462.313 134.336C462.356 136.213 462.377 138.219 462.377 140.352C462.42 142.485 462.441 144.576 462.441 146.624C462.484 148.672 462.505 150.528 462.505 152.192C462.548 153.856 462.569 155.179 462.569 156.16H454.185ZM481.961 145.984C481.151 145.131 480.041 144.149 478.633 143.04C477.268 141.931 475.775 140.8 474.153 139.648C472.532 138.496 470.953 137.429 469.417 136.448C467.924 135.467 466.623 134.677 465.513 134.08C466.239 133.312 467.007 132.352 467.817 131.2C468.671 130.048 469.332 129.088 469.801 128.32C471.039 128.917 472.447 129.707 474.025 130.688C475.647 131.627 477.289 132.629 478.953 133.696C480.617 134.763 482.153 135.829 483.561 136.896C485.012 137.92 486.143 138.816 486.953 139.584C486.484 140.053 485.908 140.693 485.225 141.504C484.585 142.315 483.967 143.147 483.369 144C482.772 144.811 482.303 145.472 481.961 145.984ZM463.401 112C462.633 111.531 461.524 110.955 460.073 110.272C458.665 109.589 457.129 108.907 455.465 108.224C453.801 107.499 452.223 106.859 450.729 106.304C449.236 105.707 448.02 105.28 447.081 105.024C447.423 104.555 447.849 103.893 448.361 103.04C448.873 102.187 449.385 101.333 449.897 100.48C450.409 99.584 450.793 98.9014 451.049 98.432C452.031 98.7307 453.268 99.1787 454.761 99.776C456.297 100.373 457.876 101.035 459.497 101.76C461.161 102.443 462.697 103.104 464.105 103.744C465.513 104.384 466.58 104.896 467.305 105.28C466.964 105.792 466.516 106.496 465.961 107.392C465.449 108.245 464.959 109.099 464.489 109.952C464.02 110.805 463.657 111.488 463.401 112Z" fill="white"/>
<path d="M522.653 154.752C522.696 153.941 522.717 152.683 522.717 150.976C522.76 149.269 522.781 147.285 522.781 145.024C522.824 142.72 522.845 140.288 522.845 137.728C522.888 135.168 522.909 132.629 522.909 130.112C522.909 127.595 522.909 125.248 522.909 123.072C519.709 125.461 516.531 127.68 513.373 129.728C510.216 131.776 507.208 133.525 504.349 134.976C503.965 134.507 503.347 133.888 502.493 133.12C501.64 132.309 500.765 131.52 499.869 130.752C499.016 129.984 498.355 129.408 497.885 129.024C501.341 127.488 504.904 125.568 508.573 123.264C512.285 120.96 515.891 118.485 519.389 115.84C522.931 113.152 526.195 110.464 529.181 107.776C532.211 105.088 534.771 102.571 536.861 100.224C537.373 100.651 538.056 101.184 538.909 101.824C539.763 102.464 540.637 103.083 541.533 103.68C542.472 104.277 543.219 104.747 543.773 105.088C540.019 108.971 535.667 112.96 530.717 117.056C530.717 119.275 530.739 121.856 530.781 124.8C530.824 127.744 530.867 130.795 530.909 133.952C530.952 137.067 530.973 140.053 530.973 142.912C531.016 145.771 531.059 148.245 531.101 150.336C531.144 152.427 531.165 153.899 531.165 154.752H522.653Z" fill="white"/>
<path d="M590.609 150.784C590.097 150.4 589.457 149.952 588.689 149.44C587.964 148.928 587.367 148.523 586.897 148.224V116.16C586.897 113.771 586.855 111.744 586.769 110.08C586.727 108.416 586.684 107.285 586.641 106.688C587.324 106.688 588.22 106.709 589.329 106.752C590.439 106.795 591.527 106.837 592.593 106.88C593.703 106.923 594.556 106.944 595.153 106.944C595.111 107.584 595.025 108.693 594.897 110.272C594.812 111.851 594.769 113.835 594.769 116.224V140.416C596.092 139.819 597.671 139.008 599.505 137.984C601.34 136.917 603.217 135.787 605.137 134.592C607.1 133.355 608.913 132.139 610.577 130.944C612.241 129.749 613.564 128.704 614.545 127.808C614.673 128.576 614.844 129.515 615.057 130.624C615.313 131.691 615.569 132.736 615.825 133.76C616.124 134.741 616.359 135.488 616.529 136C614.951 137.237 613.095 138.56 610.961 139.968C608.828 141.376 606.545 142.763 604.113 144.128C601.724 145.493 599.356 146.752 597.009 147.904C594.705 149.056 592.572 150.016 590.609 150.784ZM565.969 151.04C565.116 150.315 564.007 149.483 562.641 148.544C561.276 147.605 560.017 146.816 558.865 146.176C561.084 144.384 562.983 142.592 564.561 140.8C566.183 139.008 567.505 137.045 568.529 134.912C569.596 132.736 570.385 130.219 570.897 127.36C571.409 124.501 571.665 121.109 571.665 117.184C571.665 114.112 571.644 111.808 571.601 110.272C571.601 108.693 571.537 107.477 571.409 106.624C572.22 106.667 573.137 106.731 574.161 106.816C575.228 106.901 576.252 106.987 577.233 107.072C578.257 107.115 579.089 107.157 579.729 107.2C579.601 108.139 579.495 109.355 579.409 110.848C579.324 112.341 579.281 114.496 579.281 117.312C579.281 122.859 578.791 127.659 577.809 131.712C576.828 135.765 575.356 139.328 573.393 142.4C571.431 145.472 568.956 148.352 565.969 151.04Z" fill="white"/>
<path d="M632.965 155.904C631.259 155.904 629.701 155.477 628.293 154.624C626.885 153.813 625.755 152.704 624.901 151.296C624.048 149.845 623.621 148.245 623.621 146.496C623.621 144.747 624.027 143.168 624.837 141.76C625.691 140.352 626.821 139.243 628.229 138.432C629.68 137.579 631.259 137.152 632.965 137.152C634.715 137.152 636.293 137.579 637.701 138.432C639.152 139.285 640.283 140.416 641.093 141.824C641.947 143.232 642.373 144.789 642.373 146.496C642.373 148.245 641.947 149.845 641.093 151.296C640.24 152.704 639.088 153.813 637.637 154.624C636.229 155.477 634.672 155.904 632.965 155.904ZM632.965 152.32C634.587 152.32 635.952 151.765 637.061 150.656C638.213 149.504 638.789 148.139 638.789 146.56C638.789 144.981 638.213 143.616 637.061 142.464C635.952 141.312 634.587 140.736 632.965 140.736C631.387 140.736 630.021 141.312 628.869 142.464C627.76 143.573 627.205 144.939 627.205 146.56C627.205 148.139 627.76 149.504 628.869 150.656C630.021 151.765 631.387 152.32 632.965 152.32Z" fill="white"/>
</svg>
